<svg id="blue_svg_2px" xmlns="http://www.w3.org/2000/svg" viewBox="0 0 96 96"><path class="cls-1" d="M67.37,56.94A3.59,3.59,0,1,0,71,60.53,3.6,3.6,0,0,0,67.37,56.94Zm0,5.19A1.59,1.59,0,1,1,69,60.53,1.6,1.6,0,0,1,67.37,62.13Z"/><path class="cls-1" d="M90.71,40.52H74.28l4.38-4a10.21,10.21,0,0,1,6.89-2.66h5.16a1,1,0,0,0,1-1V28.06a1,1,0,0,0-1-1H85.52c-3.92,0-7.29.34-11.95,4.64l-7.35,6.66L54.92,42.25a5.14,5.14,0,0,0-4.11,5v7.66a3.34,3.34,0,0,0-1.69,3.11,3.2,3.2,0,0,0,3.12,3.48h7.28a7.91,7.91,0,0,0,15.69,0h15.5a1,1,0,0,0,1-1v-19A1,1,0,0,0,90.71,40.52Zm-23.64-.33a1,1,0,0,0,.35-.2l7.51-6.81c4.14-3.82,7-4.12,10.6-4.12h4.19v2.81H85.55a12.22,12.22,0,0,0-8.23,3.18l-6.14,5.59a1,1,0,0,0,.46,1.88H89.71V54.73H72.86l-.11,0a7.87,7.87,0,0,0-10.58-.18H52.81V50.19A7,7,0,0,0,56.88,48a15.89,15.89,0,0,0,2.78-5.25Zm-11.71,4,.14,0,1.72-.59a11.94,11.94,0,0,1-1.84,3.09,4.89,4.89,0,0,1-2.57,1.48v-.85A3.14,3.14,0,0,1,55.36,44.2ZM51.12,58.05c0-1.09.6-1.48,1.12-1.48h8.29a7.85,7.85,0,0,0-1,3H52.24C51.72,59.53,51.12,59.15,51.12,58.05Zm16.25,8.4a5.92,5.92,0,1,1,5.92-5.92A5.92,5.92,0,0,1,67.37,66.45Zm7.85-6.92a7.86,7.86,0,0,0-.91-2.81h15.4v2.81Z"/><path class="cls-1" d="M85.52,46.84h1.73a1,1,0,0,0,0-2H85.52a1,1,0,0,0,0,2Z"/><path class="cls-1" d="M47.5,31.87a1,1,0,0,0-1,1l-.08,6.05a1,1,0,0,0,1,1h0a1,1,0,0,0,1-1l.08-6.05A1,1,0,0,0,47.5,31.87Z"/><path class="cls-1" d="M50.67,40.25a1,1,0,0,0,.76-.35l3.26-3.79a1,1,0,0,0-1.52-1.3L49.91,38.6a1,1,0,0,0,.76,1.65Z"/><path class="cls-1" d="M43.4,39.91a1,1,0,0,0,1.52-1.3l-3.26-3.79a1,1,0,0,0-1.52,1.3Z"/><path class="cls-1" d="M28.38,56.94A3.59,3.59,0,1,0,32,60.53,3.6,3.6,0,0,0,28.38,56.94Zm0,5.19A1.59,1.59,0,1,1,30,60.53,1.6,1.6,0,0,1,28.38,62.13Z"/><path class="cls-1" d="M44.94,54.95V47.29a5.14,5.14,0,0,0-4.11-5L29.52,38.36,22.18,31.7c-4.67-4.3-8-4.64-12-4.64H5a1,1,0,0,0-1,1v4.81a1,1,0,0,0,1,1H10.2a10.21,10.21,0,0,1,6.89,2.66l4.38,4H5a1,1,0,0,0-1,1v19a1,1,0,0,0,1,1h15.5a7.91,7.91,0,0,0,15.69,0H43.5a3.2,3.2,0,0,0,3.12-3.48A3.34,3.34,0,0,0,44.94,54.95ZM40.39,44.2a3.14,3.14,0,0,1,2.55,3.09v.85a4.9,4.9,0,0,1-2.57-1.48,11.94,11.94,0,0,1-1.84-3.09l1.72.59ZM10.2,31.87H6V29.06h4.19c3.59,0,6.46.29,10.61,4.12l7.5,6.8a1,1,0,0,0,.35.2l7.4,2.55A15.89,15.89,0,0,0,38.86,48a7,7,0,0,0,4.07,2.21v4.38H33.57A7.87,7.87,0,0,0,23,54.75l-.11,0H6V42.52H23.75a.94.94,0,0,0,.14,0l.16,0a1,1,0,0,0,.67-1.74l-6.29-5.72A12.22,12.22,0,0,0,10.2,31.87ZM6,56.73h15.4a7.86,7.86,0,0,0-.91,2.81H6Zm22.34,9.72a5.92,5.92,0,1,1,5.92-5.92A5.92,5.92,0,0,1,28.38,66.45ZM43.5,59.53H36.22a7.85,7.85,0,0,0-1-3H43.5c.52,0,1.12.39,1.12,1.48S44,59.53,43.5,59.53Z"/><path class="cls-1" d="M10.22,44.84H8.49a1,1,0,0,0,0,2h1.73a1,1,0,1,0,0-2Z"/></svg>