<svg id="blue_svg_2px" xmlns="http://www.w3.org/2000/svg" viewBox="0 0 96 96"><path class="cls-1" d="M83.81,35.14A2.2,2.2,0,0,0,86,32.95V25.77a2.2,2.2,0,0,0-2.19-2.2H82.42V16.2A2.2,2.2,0,0,0,80.22,14H32.46a2.2,2.2,0,0,0-2.19,2.2v7.18a2.2,2.2,0,0,0,2.19,2.2h1.41c0,.07,0,.13,0,.2v2.71c-.85-.08-1.71-.13-2.58-.13a27.32,27.32,0,0,0,0,54.64H81.42a2.29,2.29,0,0,0,2.19-2.37V73.8a2.29,2.29,0,0,0-2.19-2.37H80V63.86h.19a2.29,2.29,0,0,0,2.19-2.37v-7.2h1.39A2.29,2.29,0,0,0,86,51.92V45.08a2.29,2.29,0,0,0-2.19-2.37H80V35.14ZM32.27,23.38V16.2a.2.2,0,0,1,.19-.2H80.22a.2.2,0,0,1,.19.2v7.38h-48A.2.2,0,0,1,32.27,23.38Zm3.58,2.39a.2.2,0,0,1,.19-.2H83.81a.2.2,0,0,1,.19.2v7.18a.2.2,0,0,1-.19.2H46.66a27.08,27.08,0,0,0-10.81-4.39ZM6,55.68A25.27,25.27,0,1,1,31.27,81,25.32,25.32,0,0,1,6,55.68ZM81.61,73.8v6.84c0,.24-.14.37-.19.37H41.49A27.39,27.39,0,0,0,52,73.43H81.42C81.47,73.43,81.61,73.56,81.61,73.8ZM78,71.43H53.53a27.26,27.26,0,0,0,3.77-7.62,1,1,0,0,0,.23,0H78Zm2.39-9.94c0,.24-.14.37-.19.37H57.83a27.33,27.33,0,0,0,.71-6.18q0-.7,0-1.39H80.42ZM84,45.08v6.84c0,.24-.14.37-.19.37H58.32a27.13,27.13,0,0,0-2.08-7.57H83.81C83.86,44.71,84,44.84,84,45.08Zm-6-2.37H55.27a27.49,27.49,0,0,0-6-7.57H78Z"/><path class="cls-1" d="M52.57,55.68A21.3,21.3,0,1,0,31.27,77,21.34,21.34,0,0,0,52.57,55.68Zm-40.6,0A19.3,19.3,0,1,1,31.27,75,19.34,19.34,0,0,1,12,55.68Z"/><path class="cls-1" d="M39.43,65.25a1,1,0,0,0-1-1H25.9a13.3,13.3,0,0,0,1.59-6.32V56.68h5a1,1,0,0,0,0-2h-5v-5c0-2.75,2-5,4.37-5s4.37,2.23,4.37,5a1,1,0,0,0,2,0c0-3.85-2.86-7-6.37-7s-6.37,3.13-6.37,7v5H22.91a1,1,0,0,0,0,2h2.58v1.25a11.31,11.31,0,0,1-1.9,6.29l-.32.48a1,1,0,0,0,.83,1.55H38.43A1,1,0,0,0,39.43,65.25Z"/></svg>