<svg id="blue_svg_2px" xmlns="http://www.w3.org/2000/svg" viewBox="0 0 96 96"><path class="cls-1" d="M69.8,51a15.94,15.94,0,0,0-2.62.22l-0.66.11-0.18-.65,0-.17A34.37,34.37,0,0,1,65,41.22V36.55h3.9a2.59,2.59,0,0,1,2.59,2.21A2.55,2.55,0,0,1,69,41.65a1.12,1.12,0,0,0-1.09.75,1.09,1.09,0,0,0,.17,1,1.07,1.07,0,0,0,.86.43,4.71,4.71,0,0,0,3.44-1.5,4.66,4.66,0,0,0,1.24-3.55,4.89,4.89,0,0,0-4.79-4.33H64.33l-9.17-8.13,1.26-.4a6.54,6.54,0,0,0-1.51-12.76l-0.47,0a6.55,6.55,0,0,0-6.54,6.54c0,0.08,0,.16,0,0.24l0,0.92L47,20.65a8,8,0,0,0-1.29-.11,7.83,7.83,0,0,0-5.58,2.3L27.83,35.2a6.22,6.22,0,0,0-1.17,3.06l-0.07.67H21.23A1.07,1.07,0,0,0,20.16,40v1.82A5.22,5.22,0,0,0,25.37,47h4.35L29.5,48l-0.6,2.6-0.15.65-0.67-.08A16.19,16.19,0,0,0,26.2,51,16,16,0,0,0,10.26,67c0,10.47,8,15.94,15.94,15.94A15.87,15.87,0,0,0,41.73,70.57l0.32-1.39,1,1.05a1.06,1.06,0,0,0,.79.35H54.26l0.15,0.55C55.36,74.6,61.12,82.9,69.8,82.9A15.94,15.94,0,0,0,69.8,51Zm-6.89-7.91c0,0.32,0,.65.06,1L63,44.89H47.46l-0.22-.26c-0.19-.23-0.41-0.46-0.64-0.69l-4.46-4.46-0.53-.53,0.53-.53,5.75-5.75,0.45-.45,0.52,0.38,13.74,10,0.29,0.21ZM54.44,15.24a4.4,4.4,0,0,1,4.39,4.6A4.43,4.43,0,0,1,54.65,24H54.44A4.4,4.4,0,0,1,54.44,15.24ZM31.69,34.36l10-10a5.75,5.75,0,0,1,8.12,0L62.86,36v4.12l-14-10.14a1.08,1.08,0,0,0-1.39.11l-7.39,7.39-0.31.31-0.42-.12-1.64-.45L32,35.61l-1.24-.34ZM25.37,44.89a3.07,3.07,0,0,1-3.06-3.07V41.07h4.56L27,41.59a8.41,8.41,0,0,0,1.05,2.13l0.81,1.17H25.37Zm14.49,24A13.79,13.79,0,1,1,26.2,53.17c0.37,0,.77,0,1.2.06l0.86,0.07-3.1,13.38a1.14,1.14,0,0,0,0,.58,1.08,1.08,0,0,0,1,.78H40Zm-12.31-3,2.8-12.11,0.81,0.31A13.81,13.81,0,0,1,39.86,65L40,65.89H27.55ZM40,59a16,16,0,0,0-8.54-7.09l-0.63-.22L31,51l0.75-3.22,0.23-1,7.79,4.5,2.75,12Zm1.73-8.61a1.08,1.08,0,0,0-.51-0.69l-9.65-5.57a6,6,0,0,1-2.71-3.94,5.16,5.16,0,0,1,.06-2.44l0.2-.71,0.72,0.2,9.48,2.62,0.19,0.05L39.67,40l5.41,5.41a10,10,0,0,1,2.77,5.27l1.89,11.75H44.51Zm3.14,18V64.62h4.63a5.92,5.92,0,0,1,1.71.33,4.66,4.66,0,0,1,2.51,2.43l0.46,1.05H44.88Zm9.44-5.32-0.25,1-0.88-.58a6.74,6.74,0,0,0-.84-0.47L52,62.94l-0.06-.39L50,50.39a12.26,12.26,0,0,0-.66-2.32L48.9,47H63.32l0.11,0.62c0.21,1.16.47,2.32,0.79,3.46l0,0.17,0.18,0.65-0.62.25A16,16,0,0,0,54.33,63.12Zm15.9,17.63H69.8a13.84,13.84,0,0,1-13.52-11V69.54C56,67.11,56,67,56,67a13.81,13.81,0,0,1,8.24-12.62L65,54l0.23,0.83,3.5,12.43a1.07,1.07,0,0,0,2.07-.58l-3.5-12.43-0.23-.83L68,53.29a14.09,14.09,0,0,1,1.84-.13A13.81,13.81,0,0,1,83.58,67.62,13.85,13.85,0,0,1,70.23,80.75Z"/></svg>
