<svg id="blue_svg_2px" xmlns="http://www.w3.org/2000/svg" viewBox="0 0 96 96"><path class="cls-1" d="M9.88,66.21c4.59,0,6.68-2.58,8.35-4.66,1.32-1.62,2.36-2.91,4.26-2.86h0c1.91,0,2.93,1.25,4.26,2.88,1.68,2.08,3.77,4.68,8.35,4.68h0.23c4.59,0,6.68-2.6,8.35-4.68C45,59.94,46.09,58.63,48,58.69h0c1.91,0,2.93,1.23,4.26,2.86,1.68,2.08,3.77,4.66,8.35,4.66s6.68-2.58,8.35-4.66c1.34-1.63,2.39-2.92,4.28-2.87h0c1.91,0,2.93,1.25,4.26,2.88,1.68,2.08,3.77,4.68,8.35,4.68h0.21a9.23,9.23,0,0,0,7.61-3.77,0.8,0.8,0,0,0-.09-1.13,0.79,0.79,0,0,0-1.11.1,7.71,7.71,0,0,1-6.4,3.21H86c-3.84,0-5.51-2.09-7.13-4.09-1.37-1.7-2.79-3.46-5.37-3.46H73.31c-2.67-.07-4.12,1.72-5.51,3.45-1.62,2-3.3,4.07-7.13,4.07s-5.51-2.07-7.13-4.08c-1.37-1.7-2.79-3.45-5.37-3.45H48c-2.68-.07-4.12,1.74-5.51,3.47-1.62,2-3.3,4.09-7.13,4.09H35.16c-3.84,0-5.51-2.09-7.13-4.09-1.4-1.73-2.84-3.53-5.51-3.46S18.4,58.83,17,60.56c-1.62,2-3.3,4.06-7.13,4.06a7.7,7.7,0,0,1-6.4-3.19,0.79,0.79,0,1,0-1.24,1l0,0A9.22,9.22,0,0,0,9.88,66.21Z"/><path class="cls-1" d="M93.72,72.18a0.79,0.79,0,0,0-1.11.11,7.72,7.72,0,0,1-6.4,3.21H86c-3.84,0-5.51-2.09-7.13-4.1-1.4-1.73-2.84-3.53-5.51-3.46s-4.12,1.72-5.51,3.44c-1.62,2-3.3,4.06-7.13,4.06s-5.51-2.07-7.13-4.08c-1.4-1.73-2.84-3.52-5.51-3.45S44,69.67,42.57,71.4c-1.62,2-3.3,4.1-7.13,4.1H35.22c-3.84,0-5.51-2.09-7.13-4.1-1.4-1.73-2.84-3.53-5.51-3.46s-4.12,1.72-5.51,3.44c-1.62,2-3.3,4.06-7.13,4.06a7.7,7.7,0,0,1-6.4-3.19,0.79,0.79,0,1,0-1.24,1l0,0A9.21,9.21,0,0,0,9.94,77c4.59,0,6.68-2.58,8.35-4.66,1.32-1.63,2.36-2.91,4.26-2.86h0c1.9-.05,2.93,1.25,4.26,2.88,1.68,2.08,3.77,4.68,8.35,4.68h0.23c4.59,0,6.68-2.61,8.35-4.68,1.32-1.63,2.35-2.93,4.26-2.87h0c1.89-.05,2.93,1.23,4.26,2.86C54,74.45,56.14,77,60.72,77s6.68-2.59,8.35-4.66c1.32-1.63,2.35-2.91,4.26-2.86h0c1.89-.05,2.93,1.25,4.26,2.88,1.68,2.08,3.77,4.68,8.35,4.68h0.19a9.23,9.23,0,0,0,7.61-3.77A0.81,0.81,0,0,0,93.72,72.18Z"/><path class="cls-1" d="M9.76,55.38c4.59,0,6.68-2.58,8.35-4.66,1.32-1.63,2.36-2.92,4.26-2.86h0c1.9-.06,2.93,1.25,4.26,2.88,1.68,2.08,3.77,4.68,8.35,4.68h0.23c4.59,0,6.68-2.6,8.35-4.68,1.32-1.63,2.35-2.93,4.26-2.87h0c1.91-.05,2.93,1.23,4.26,2.86,1.68,2.08,3.77,4.66,8.35,4.66s6.68-2.58,8.35-4.66c1.32-1.63,2.35-2.92,4.26-2.86h0c1.91-.05,2.93,1.25,4.26,2.88,1.68,2.08,3.77,4.68,8.35,4.68H86a9.2,9.2,0,0,0,7.61-3.76,0.8,0.8,0,0,0-.09-1.13h0a0.79,0.79,0,0,0-1.11.1A7.66,7.66,0,0,1,86,53.83H85.84c-3.67,0-5.36-1.93-6.92-3.85V48.17c0-2.21-1.35-3.93-3.84-4.83L64.79,39.7a0.49,0.49,0,0,1-.19-0.12l-7.33-7.52C52.71,27.79,49.41,27,45.56,27h-18c-2.62,0-4.92,2.09-6.4,3.87l-7.43,8.95a2.31,2.31,0,0,1-.68.52,3.2,3.2,0,0,0-1.63,2.82V53.65a8.91,8.91,0,0,1-1.66.15,7.7,7.7,0,0,1-6.4-3.19,0.79,0.79,0,0,0-1.2,1A9.18,9.18,0,0,0,9.76,55.38Zm63.81-10.9,1,0.36c1.86,0.65,2.82,1.78,2.82,3.34v0a5.47,5.47,0,0,0-3.89-1.92,12.23,12.23,0,0,1-.57-1.13,0.5,0.5,0,0,1,.63-0.67h0ZM13,43.11a1.55,1.55,0,0,1,.78-1.47h0l0.06,0a0.49,0.49,0,0,1,.29-0.07,1.54,1.54,0,0,1,1.58,1.54,0.7,0.7,0,0,1,0,.08,3.13,3.13,0,0,1-2.05,2.68A0.48,0.48,0,0,1,13,45.36V43.11h0ZM13,48a0.48,0.48,0,0,1,.39-0.49,4.71,4.71,0,0,0,3.88-4.38,2.93,2.93,0,0,0-1.39-2.6,0.51,0.51,0,0,1-.18-0.69l0-.06,6.6-8c1-1.25,3.08-3.41,5.2-3.41h18c3.56,0,6.45.84,10.63,4.76l7.51,7.76,0.37,0.24,6.37,2.27a0.5,0.5,0,0,1,.31.33,15.54,15.54,0,0,0,1.1,2.74c-1.85.45-3,1.9-4.17,3.31-1.62,2-3.3,4.08-7.13,4.08S55,51.73,53.42,49.72C52,48,50.58,46.21,47.91,46.27S43.8,48,42.4,49.72a19.09,19.09,0,0,1-1.85,2.08v-7a0.66,0.66,0,0,1,.65-0.65H59.46A0.61,0.61,0,0,0,60,43.06c0.25,0.29-4.13-4.81-7.31-8.46-1.93-2.21-5-3.1-7.93-3.12H31.29a5.09,5.09,0,0,0-3.79,1.79,0.23,0.23,0,0,1,0,.07L20.29,43c-0.35.35-.36,1.08,0.62,1.08H38.33a0.77,0.77,0,0,1,.63.65v8.17a7.57,7.57,0,0,1-3.69.89H35c-3.84,0-5.51-2.09-7.13-4.09-1.4-1.73-2.84-3.52-5.51-3.46S18.29,48,16.89,49.73A10.75,10.75,0,0,1,13,53.16V48h0Zm27.54-5.76v-8.6c0-.28.06-0.57,0.34-0.57h3.84a9.13,9.13,0,0,1,6.92,2.73l5.38,6a0.45,0.45,0,0,1-.38.75H40.88c-0.28,0-.34,0-0.34-0.31h0Zm-1.7-8.68v8.58a0.43,0.43,0,0,1-.5.41H23.44a0.44,0.44,0,0,1-.4-0.71l5.62-7.55,0-.05a3.51,3.51,0,0,1,2.59-1.16h7.05a0.49,0.49,0,0,1,.51.47h0Z"/><path class="cls-1" d="M62.38,27a3.25,3.25,0,1,0-3.25-3.25h0A3.25,3.25,0,0,0,62.38,27Zm0-4.92a1.67,1.67,0,1,1-1.67,1.67h0A1.67,1.67,0,0,1,62.38,22.07Z"/><path class="cls-1" d="M72.63,24.53a2.8,2.8,0,1,0-2.8-2.8h0A2.81,2.81,0,0,0,72.63,24.53Zm0-4a1.22,1.22,0,1,1-1.22,1.22,1.22,1.22,0,0,1,1.22-1.22h0Z"/><path class="cls-1" d="M71.94,32a3,3,0,1,0,3-3,3,3,0,0,0-3,3h0Zm4.46,0A1.44,1.44,0,1,1,75,30.58h0A1.44,1.44,0,0,1,76.41,32h0Z"/></svg>
