<svg id="blue_svg_2px" xmlns="http://www.w3.org/2000/svg" viewBox="0 0 96 96"><path class="cls-1" d="M66.61,69.84a3.5,3.5,0,1,0,3.5,3.5A3.5,3.5,0,0,0,66.61,69.84Zm0,5a1.5,1.5,0,1,1,1.5-1.5A1.5,1.5,0,0,1,66.61,74.84Z"/><path class="cls-1" d="M29.33,67.68a3.75,3.75,0,1,0,3.75,3.75A3.75,3.75,0,0,0,29.33,67.68Zm0,5.5a1.75,1.75,0,1,1,1.75-1.75A1.75,1.75,0,0,1,29.33,73.18Z"/><path class="cls-1" d="M81.91,68.46V61.69a4.85,4.85,0,0,0-3.84-4.8L67.68,54.15,61,47.93c-4.3-4.06-7.41-4.87-11.05-4.87h-9.5A16.81,16.81,0,0,0,36.06,15a1,1,0,0,0-1.4.92V27.83H24V15.91A1,1,0,0,0,22.6,15,16.82,16.82,0,0,0,22,45.55V69a1,1,0,0,0,0,.18v4.7a7.34,7.34,0,0,0,14.57,1.23H59.06a7.74,7.74,0,0,0,15.1,0h6.35a3,3,0,0,0,3-3v-1A3,3,0,0,0,81.91,68.46Zm-2-6.76v.88a4.38,4.38,0,0,1-2.22-1.31A10.93,10.93,0,0,1,76,58.41l1.63.43A2.87,2.87,0,0,1,79.91,61.69Zm-30-16.64c3.23,0,5.85.71,9.68,4.33l6.9,6.4a1,1,0,0,0,.42.23l6.7,1.77a14.6,14.6,0,0,0,2.55,4.79,6.52,6.52,0,0,0,3.72,2v3.47H72.38l-.07,0a7.71,7.71,0,0,0-11.42,0l-.12,0H46.16V57.59H61.63a1,1,0,0,0,.39-.08l.05,0a1,1,0,0,0,.28-.2h0a.94.94,0,0,0,.07-.12.65.65,0,0,0,.16-.41.94.94,0,0,0,0-.14v0a1,1,0,0,0,0-.23,1.27,1.27,0,0,0-.26-.47v0l-5.78-5.26a11.3,11.3,0,0,0-7.62-2.95H36.66V45.55c.32-.16.64-.33.95-.5Zm-1,4.59a9.3,9.3,0,0,1,6.27,2.43L59,55.59H46.16V49.64Zm-4.75,5.94H36.73v-.07a1,1,0,0,0-.06-.32V49.64h7.5ZM36.67,68.09a1,1,0,0,0,.06-.28V57.59h7.43V68.09Zm0,2H59.58a7.69,7.69,0,0,0-.71,3H36.66Zm-2,3.74a5.34,5.34,0,0,1-10.68,0V69.3a1,1,0,0,0,0-.18V44.91a1,1,0,0,0-.6-.92A14.82,14.82,0,0,1,22,17.53v11.3a1,1,0,0,0,1,1H35.66a1,1,0,0,0,1-1V17.53A14.82,14.82,0,0,1,35.26,44a1,1,0,0,0-.6.92V69.12s0,.05,0,.08Zm31.94,5.25a5.75,5.75,0,1,1,5.75-5.75A5.76,5.76,0,0,1,66.61,79.09Zm14.89-7a1,1,0,0,1-1,1H74.34a7.69,7.69,0,0,0-.71-3h6.87a1,1,0,0,1,1,1Z"/><path class="cls-1" d="M50.92,59.56H49.33a1,1,0,0,0,0,2h1.59a1,1,0,0,0,0-2Z"/></svg>