<svg id="blue_svg_2px" xmlns="http://www.w3.org/2000/svg" viewBox="0 0 96 96"><path class="cls-1" d="M26.44,50.33a4.17,4.17,0,1,0,3.68,4.61V54.89A4.15,4.15,0,0,0,26.44,50.33Zm-0.67,6.78a2.64,2.64,0,1,1,2.84-2.43v0.05a2.62,2.62,0,0,1-2.84,2.35v0Z"/><path class="cls-1" d="M65,54.16a4.32,4.32,0,1,0,3.8,4.77V58.87A4.29,4.29,0,0,0,65,54.16Zm-0.7,7.06a2.79,2.79,0,1,1,3-2.57v0.06a2.76,2.76,0,0,1-3,2.51h0Z"/><path class="cls-1" d="M81,56.17l1-10c0.22-2.18-1-4-3.33-5.13l-9.9-4.64L62.2,28.19c-4.08-4.66-7.25-5.82-11-6.2L33.42,20.24c-2.58-.26-5.06,1.61-6.68,3.21l-8.19,8.1a2.35,2.35,0,0,1-.73.45,3.17,3.17,0,0,0-1.89,2.62l-1.48,15a2.92,2.92,0,0,0,.64,5.67l2.39,0.24a8.59,8.59,0,0,0,16.72,1.66l21.94,2.17A8.4,8.4,0,0,0,72.64,61l6.64,0.66A2.92,2.92,0,0,0,81,56.2v0ZM80.47,46.06L80.36,47.2a5.1,5.1,0,0,1-2.72-1.86,12.12,12.12,0,0,1-1.57-3.76l2,0.91C79.79,43.31,80.63,44.52,80.47,46.06ZM27.8,24.54c1.14-1.13,3.37-3,5.46-2.78L51,23.51c3.51,0.35,6.28,1.39,10,5.66l6.64,8.35a0.76,0.76,0,0,0,.27.22l6.36,3a15.37,15.37,0,0,0,2.07,5.46,6.69,6.69,0,0,0,3.82,2.55l-0.69,7L72.32,55a8.4,8.4,0,0,0-14.73-1.46L43,52.14,44.4,38.28l18.8,1.86H63.3a0.5,0.5,0,0,0,.31-0.08l0.1,0h0l0.11-.12,0.09-.1a5645770.17,5645770.17,0,0,1,0-.29h0a0.76,0.76,0,0,0,0-.11,0.5,0.5,0,0,0-.08-0.31l0-.1-6.26-8.85,0-.06a11.68,11.68,0,0,0-7.59-3.88L36.68,24.9a5,5,0,0,0-3.92,1.35l-8,8.86a0.76,0.76,0,0,0,0,.08l-0.08.13a0.76,0.76,0,0,0,0,.15,0.71,0.71,0,0,0,0,.08v0.05a0.43,0.43,0,0,0,0,.29,1.05,1.05,0,0,0,.16.25v0l0.09,0.06L25,36.29a0.76,0.76,0,0,0,.26.08l17.67,1.75L41.51,52,34,51.25a8.54,8.54,0,0,0-15.2-1.51L16,49.47l1-10.32a4.67,4.67,0,0,0,4.68-4,2.91,2.91,0,0,0-1.62-3ZM45.49,27.3l4.29,0.42a10.15,10.15,0,0,1,6.58,3.35l5.32,7.38L44.55,36.76ZM43,36.61L26.87,35l7-7.69a3.46,3.46,0,0,1,2.7-.91L44,27.15Zm-24.6-3.2,0.2-.1A1.54,1.54,0,0,1,20.18,35a3.13,3.13,0,0,1-3,2.57l0.28-2.84a1.64,1.64,0,0,1,1-1.37h0Zm-3.2,20.34A1.39,1.39,0,0,1,15.51,51l2.55,0.25a8.81,8.81,0,0,0-.6,2.43l0,0.3Zm10.09,7.91a7.2,7.2,0,1,1,7.77-6.59v0.12A7.15,7.15,0,0,1,25.32,61.65Zm9.23-6,0-.3a8.81,8.81,0,0,0-.11-2.5l22.33,2.21a8.65,8.65,0,0,0-.66,2.58l0,0.16Zm29.31,9.81A7.06,7.06,0,1,1,71.47,59v0.13A7,7,0,0,1,63.86,65.47ZM79.43,60.1l-6.48-.64,0-.16a8.65,8.65,0,0,0-.14-2.65l6.84,0.68a1.39,1.39,0,0,1-.27,2.77h0Z"/><path class="cls-1" d="M49.11,41.23l-1.69-.17a0.76,0.76,0,1,0-.15,1.52L49,42.75A0.76,0.76,0,1,0,49.11,41.23Z"/><path class="cls-1" d="M65.14,70.08a20.7,20.7,0,0,1-11-3.51,5.2,5.2,0,0,0-2.86-.86H2.65a0.67,0.67,0,1,1,0-1.34H51.3a6.53,6.53,0,0,1,3.6,1.08,19.34,19.34,0,0,0,10.25,3.29,10,10,0,0,0,7.19-2.55,6.54,6.54,0,0,1,4.53-1.82H93.54a0.67,0.67,0,0,1,0,1.34H76.87a5.21,5.21,0,0,0-3.61,1.45A11.35,11.35,0,0,1,65.14,70.08Z"/><path class="cls-1" d="M72.89,63.83a0.67,0.67,0,0,1-.18-1.32l2.75-.75a0.67,0.67,0,1,1,.35,1.29l-2.75.75Z"/><path class="cls-1" d="M77.51,71.32a0.67,0.67,0,0,1-.24,0L74,70a0.67,0.67,0,0,1,.48-1.25L77.75,70A0.67,0.67,0,0,1,77.51,71.32Z"/><path class="cls-1" d="M74.26,76.82a0.67,0.67,0,0,1-.55-0.29L70,71.16a0.67,0.67,0,0,1,1.1-.77l3.75,5.37A0.67,0.67,0,0,1,74.26,76.82Z"/><path class="cls-1" d="M66.52,84.18h0a0.67,0.67,0,0,1-.64-0.7l0.5-10.05a0.67,0.67,0,0,1,1.34.07l-0.5,10.05A0.67,0.67,0,0,1,66.52,84.18Z"/></svg>
