<svg id="blue_svg_2px" xmlns="http://www.w3.org/2000/svg" viewBox="0 0 96 96"><defs><style>.a{fill:#00008f;}.b{fill:none;}</style></defs><title>ncd</title><path class="cls-1" d="M48,6.27A41.73,41.73,0,1,1,6.27,48,41.78,41.78,0,0,1,48,6.27m0-2A43.73,43.73,0,1,0,91.73,48,43.73,43.73,0,0,0,48,4.27h0Z"/><path class="cls-1" d="M28.09,34.8l1.37,0.25c1.48,0.32,1.69.47,1.69,3.17V48.33H31L21.14,33.79H11.68v1l1.22,0.25c1.08,0.25,1.4.43,1.4,2.63V54.49c0,2.56-.4,2.74-1.55,3l-1.08.25v1h7.49v-1l-1.3-.25c-1.44-.29-1.69-0.47-1.69-3.17V38h0.14L30.47,58.77H33V38c0-2.56.4-2.74,1.55-3l1.08-.25v-1H28.09v1Z"/><path class="cls-1" d="M54,55.64a4.3,4.3,0,0,1-4.1,2c-4,0-5.8-2.55-5.8-11.91,0-7.81,1.58-10.87,5.8-10.87a3.94,3.94,0,0,1,3.63,1.69,34.14,34.14,0,0,1,2.88,5.08H57.5l-0.4-7.45a27.13,27.13,0,0,0-6.84-.83c-6.95,0-13.1,3.82-13.1,13.1,0,8.53,5.18,12.71,12.31,12.71a20.36,20.36,0,0,0,7.88-1.48l0.4-7.2h-1A25.77,25.77,0,0,1,54,55.64Z"/><path class="cls-1" d="M71.47,33.79H59.27v1l1.22,0.25c1.08,0.25,1.4.43,1.4,2.63V54.85c0,2.2-.32,2.34-1.4,2.63l-1.22.25v1h12C79.07,58.74,84,54,84,45.81,84,37.36,79,33.79,71.47,33.79ZM70.93,57.15c-2.05,0-2.48-.43-2.48-3.28V35.7a6.77,6.77,0,0,1,2.41-.32c4.25,0,6.26,2.81,6.26,11.3C77.12,53.7,75.36,57.15,70.93,57.15Z"/></svg>
