<svg id="blue_svg_2px" xmlns="http://www.w3.org/2000/svg" viewBox="0 0 96 96"><path class="cls-1" d="M43.8,62.76h-13a0.88,0.88,0,1,0,0,1.75h13A0.88,0.88,0,1,0,43.8,62.76Z"/><path class="cls-1" d="M41.07,68.61H33.48a0.88,0.88,0,1,0,0,1.75h7.59A0.88,0.88,0,1,0,41.07,68.61Z"/><path class="cls-1" d="M89.12,5.76h-24c-0.49,0-1.29,0-1.29.47v24a1.64,1.64,0,0,0,1.29,1.21H76.18l0.08,45.6H72.75a0.91,0.91,0,0,0-1.07.68v4.88H68.41c-0.49,0-1.12,0-1.12.44v6a1.4,1.4,0,0,0,1.12,1.17H85.78c0.49,0,.51-0.68.51-1.17v-6c0-.49,0-0.44-0.51-0.44H81.91V77.76c0-.49,0-0.68-0.46-0.68H78l-0.08-45.6H89.12a1.09,1.09,0,0,0,.68-1.21v-24C89.8,5.76,89.6,5.76,89.12,5.76ZM84.54,84.39v4.09H69V84.39H84.54Zm-4.38-5.55v3.51H73.43V78.84h6.72ZM88,29.73H65.54V7.52H88V29.73Z"/><path class="cls-1" d="M67.58,59.55a4.08,4.08,0,0,0-2.78-4.09h0c-0.24,0-.58-0.2-1.11-0.31s-1.15-.27-1.73-0.43a2.06,2.06,0,0,1-1.44-1.46L56,36.35s0,0.06,0,0a4.86,4.86,0,0,0-4.6-2.85H24a5.47,5.47,0,0,0-5.12,3.07,0.46,0.46,0,0,0-.09.16l-4.9,16.68a2,2,0,0,1-1.57,1.42c-0.52.11-1.08,0.2-1.54,0.27s-1,.13-1.17.19A4.52,4.52,0,0,0,6.2,59.55V74.25a4.41,4.41,0,0,0,4.38,4.29V87a3.45,3.45,0,0,0,3.22,3.22h4.38c1.61,0,2.63-1.6,2.63-3.22V78.84H53V87a3.53,3.53,0,0,0,3.28,3.22h4.38c1.6,0,2.57-1.58,2.57-3.22V78.84h0.36c2.42,0,4-2.18,4-4.59V59.55ZM19.06,87c0,0.65-.23,1.46-0.88,1.46H13.8A1.73,1.73,0,0,1,12.34,87V79.13h6.72V87Zm42.38,0c0,0.67-.18,1.46-0.82,1.46H56.25A1.79,1.79,0,0,1,54.72,87V79.13h6.72V87Zm4.38-12.77c0,1.46-.81,2.83-2.27,2.83H10.9A3.09,3.09,0,0,1,8,74.25V59.55A2.79,2.79,0,0,1,10,57c0.11,0,.58-0.1.91-0.15s1.09-.18,1.65-0.29a3.84,3.84,0,0,0,2.91-2.66l4.9-16.68,0,0.11a3.73,3.73,0,0,1,3.53-2H51.37a3.1,3.1,0,0,1,3,1.73l4.54,16.76a3.77,3.77,0,0,0,2.67,2.65c0.62,0.17,1.29.29,1.82,0.41a7.89,7.89,0,0,1,.81.22,2.48,2.48,0,0,1,1.64,2.49V74.26h0Z"/><path class="cls-1" d="M23.52,54.87H50.85a2.34,2.34,0,0,0,2.34-2.24,1.24,1.24,0,0,0,0-.25L50.26,41a2.15,2.15,0,0,0-2.34-1.87H26.45a2.13,2.13,0,0,0-2.34,1.85l-2.9,11.48a1.18,1.18,0,0,0,0,.25A2.29,2.29,0,0,0,23.52,54.87Zm2.31-13.78c0-.07,0,0,0,0s0.25-.23.58-0.23H47.93c0.34,0,.58,0,0.58.23a0.29,0.29,0,0,0,0,.12l2.89,11.56a0.61,0.61,0,0,1-.58.37H23.52a0.64,0.64,0,0,1-.58-0.42Z"/><path class="cls-1" d="M75.18,19.81a9.32,9.32,0,0,0,1.75.13,6.47,6.47,0,0,0,4.7-1.65,4.46,4.46,0,0,0,1.21-3.22,4,4,0,0,0-1.29-3.15,6.44,6.44,0,0,0-4.31-1.25,23.12,23.12,0,0,0-3.82.29V26.22h1.75V19.81h0Zm0-7.44a10,10,0,0,1,2-.16c2.15,0,3.65,1,3.65,2.95s-1.58,3.22-3.92,3.22a8.84,8.84,0,0,1-1.75-.16V12.38h0Z"/><path class="cls-1" d="M55.72,61.43a4.95,4.95,0,1,0,4.95,4.95A4.95,4.95,0,0,0,55.72,61.43Zm0,8.14a3.19,3.19,0,1,1,3.19-3.19A3.19,3.19,0,0,1,55.72,69.56Z"/><path class="cls-1" d="M19.12,61.43a4.95,4.95,0,1,0,4.95,4.95A4.95,4.95,0,0,0,19.12,61.43Zm0,8.14a3.19,3.19,0,1,1,3.19-3.19A3.19,3.19,0,0,1,19.12,69.56Z"/></svg>
