<svg id="blue_svg_2px" xmlns="http://www.w3.org/2000/svg" viewBox="0 0 96 96"><path class="cls-1" d="M72.67,54.62L58.87,52.21V46.94h0a16.65,16.65,0,0,0,6-12.85V22.59A16.6,16.6,0,0,0,48.27,6h0A16.58,16.58,0,0,0,31.69,22.55V34.08A16.62,16.62,0,0,0,37.2,46.49H37.13v5.72L23.33,54.63a18.33,18.33,0,0,0-14,16.08v9.83s0.81,3.78,7.31,5S38.08,90,48.21,90,73,86.81,79.58,85.56s7.05-5,7.05-5V70.71A18,18,0,0,0,72.67,54.62ZM33.4,34.08V22.59a14.88,14.88,0,0,1,29.76,0V34.08A14.88,14.88,0,0,1,33.4,34.08Zm4,19.82,1.43-.25V47.83a16.57,16.57,0,0,0,9.44,3h0a16.56,16.56,0,0,0,8.87-2.58v5.44l1.43,0.25,3.6,0.63c-7,10.35-14.05,10.28-14.12,10.27H48c-0.07,0-7.05.15-14.12-10.28ZM84.92,80.34c-0.15.49-1.08,2.66-5.66,3.53l-2.84.56c-1.39.29-3,.57-4.66,0.9v-6.8a0.86,0.86,0,0,0-1.72,0v7.12c-6.9,1.28-15.34,2.61-21.82,2.61s-15-1.33-22-2.62V78.54a0.86,0.86,0,0,0-1.72,0v6.8l-4.9-.95L17,83.88c-4.54-.86-5.68-3-5.91-3.6V70.82A16.49,16.49,0,0,1,17.87,59a16.78,16.78,0,0,1,5.78-2.68L32,54.85c7.56,11.59,15.34,11.69,16,11.67H48.1c1,0,8.59-.4,15.93-11.66l8.33,1.46a16.74,16.74,0,0,1,5.78,2.6A15.86,15.86,0,0,1,84.92,70.8v9.54h0Z"/></svg>
