<svg id="blue_svg_2px" xmlns="http://www.w3.org/2000/svg" viewBox="0 0 96 96"><path class="cls-1" d="M77.3,64a1.16,1.16,0,0,0-.54-0.72l-8.88-5.13,7.7-4.59,0,0,0,0a0.91,0.91,0,0,0,.45-0.56,1.25,1.25,0,0,0-.11-1,1,1,0,0,0-.89-0.51,1.26,1.26,0,0,0-.63.17l-8.9,5.21L50.31,47.94l15.27-8.8,8.94,5.23,0,0a0.71,0.71,0,0,0,.42.12A1.33,1.33,0,0,0,76,44a1.3,1.3,0,0,0,.08-1,0.87,0.87,0,0,0-.44-0.54l0,0,0,0-7.7-4.59,8.88-5.13a1.17,1.17,0,0,0,.39-1.59,1.08,1.08,0,0,0-1-.54,1.17,1.17,0,0,0-.59.16l-8.92,5.17-0.14-9.14a1.13,1.13,0,0,0-1.12-1.17,1.09,1.09,0,0,0-.78.33,1.16,1.16,0,0,0-.35.81l0.08,10.48L49,46V28.22l9-5.05a1.26,1.26,0,0,0,.59-0.74,1.08,1.08,0,0,0-.08-0.83A1.05,1.05,0,0,0,57.58,21a1.24,1.24,0,0,0-.61.17l-8,4.4V15.45a1.52,1.52,0,0,0-1.52-1.16A1.48,1.48,0,0,0,46,15.45V25.68L38.65,21.2A0.84,0.84,0,0,0,38.17,21a1,1,0,0,0-.86.56,1.12,1.12,0,0,0-.09.87,1.16,1.16,0,0,0,.56.69L46,28,46,46,31.28,37s0.16-9.41.16-10a1.14,1.14,0,0,0-2.25,0c0,0.6-.09,8.77-0.09,8.77l-8.73-5.05a1.19,1.19,0,0,0-.59-0.17,1,1,0,0,0-.93.54,1.14,1.14,0,0,0,.4,1.6L28,37.74l-7.84,4.7,0,0,0,0a0.89,0.89,0,0,0-.45.56,1.2,1.2,0,0,0,.13.95,1,1,0,0,0,1,.53,1.08,1.08,0,0,0,.6-0.17l8.94-5.28,15.47,8.87-15.47,9-0.48-.28-8.46-5a1.29,1.29,0,0,0-.65-0.18,1,1,0,0,0-.89.49,1.17,1.17,0,0,0,.36,1.6L28,58.17l-8.79,5.13a1.12,1.12,0,0,0-.41,1.57,1,1,0,0,0,.93.58,3.84,3.84,0,0,0,.67-0.21l8.67-5L29.19,69a1,1,0,0,0,1.12,1h0.08a1,1,0,0,0,.74-0.15A1.07,1.07,0,0,0,31.47,69L31.4,59.38V58.85L46,50l0,17.86-8.39,4.85a1,1,0,0,0-.45.7,1.13,1.13,0,0,0,.18.85,1,1,0,0,0,1,.59,1.18,1.18,0,0,0,.56-0.11L46,70.2V80.58a1.45,1.45,0,0,0,1.48,1.12A1.5,1.5,0,0,0,49,80.58V70.34l1.5,0.8,6.44,3.61a1.15,1.15,0,0,0,.54.11,1,1,0,0,0,1-.58,1.11,1.11,0,0,0,.11-0.85A1.18,1.18,0,0,0,58,72.72l-9-5V49.91l15.36,8.81L64.3,69.11a1.2,1.2,0,0,0,.35.86,1.12,1.12,0,0,0,1.9-.81L66.69,60l8.92,5.22a1.31,1.31,0,0,0,.61.1,1,1,0,0,0,1-.53A1.06,1.06,0,0,0,77.3,64Z"/></svg>
