<svg id="blue_svg_2px" xmlns="http://www.w3.org/2000/svg" viewBox="0 0 96 96"><path class="cls-1" d="M56,55.64a2.77,2.77,0,1,0-2.77-2.77A2.77,2.77,0,0,0,56,55.64Zm0-3.54a.77.77,0,1,1-.77.77A.77.77,0,0,1,56,52.1Z"/><path class="cls-1" d="M57.25,65.75a1,1,0,0,0,.09-.39,1.23,1.23,0,0,0,0-.22c5.62.72,12.15-.05,15.23-.41l.58-.07c3.68-.41,4.76-4.35,4.58-6.89C77.62,56,77,55,76,54.94c-.35-.11-1.6-.68-2.92-1.28a156.93,156.93,0,0,0-19.26-7.59l-.74-.63A48.46,48.46,0,0,1,48.26,41a12.9,12.9,0,0,1-3.34-10.71c.09-.47.27-3.06-1.17-3.35S42,28.59,41.81,29.59a40.47,40.47,0,0,0-.63,4.16,34,34,0,0,1-2-2.9,24.35,24.35,0,0,1-3.2-8c-1.3-6.7-.18-12.24,3-15.18.36-.3,2.09-2.17,1.16-3.29s-2.33.14-3.1.78C34,7.76,32,11,30.33,16.08l-.06.19-.06.19c-.1.28-.18.56-.26.83a4.88,4.88,0,0,1-.2-3.24c.29-1,.48-2-.14-2.52a1.16,1.16,0,0,0-1.24-.19c-1,.43-2,2.55-2.09,4.54-.17,3.43.85,6,3.19,10.32a23.75,23.75,0,0,1,.92,2.43,30.79,30.79,0,0,0,2.3,4.84c-1.84-.17-4.28-.75-5.69-2.56A15.71,15.71,0,0,1,24.46,26c-.4-1.16-.75-2.15-1.79-2.38a1.24,1.24,0,0,0-1.23.46c-1.26,1.66,2.12,8.61,2.15,8.68,1.77,3.57,6.73,6.15,12.69,6.63.66.51,1.31,1.1,1.93,1.67l.3.28c-2.35-.75-4.14-1.34-5.13-1.71a1,1,0,0,0-1.32.7A8.49,8.49,0,0,0,34,48.25c2.15,2.35,5.62,3.48,9.68,3.22A59.78,59.78,0,0,1,40.38,57c-.88,1.38-1.79,2.8-2.58,4.16-6.32,9.57-12.55,16-19,19.58a1,1,0,0,0-.12,1.67A46.19,46.19,0,0,0,47,92a46.82,46.82,0,0,0,11.32-1.39,1,1,0,0,0,.75-1.12,27.77,27.77,0,0,0-1.36-5.25C55.35,77.79,53.77,72.41,56.57,67A5.58,5.58,0,0,0,57.25,65.75ZM54.84,66l0,0c-3.2,6.17-1.43,12.22,1,18.93a26,26,0,0,1,1.1,4A44.81,44.81,0,0,1,47,90a44.19,44.19,0,0,1-25.94-8.32c6.29-3.87,12.33-10.25,18.44-19.5.8-1.38,1.7-2.78,2.57-4.14a39.52,39.52,0,0,0,4.12-7.43,1,1,0,0,0-1.1-1.31c-4.13.64-7.64-.24-9.63-2.41a6.29,6.29,0,0,1-1.63-5c1.86.64,4.89,1.61,8.62,2.75a1,1,0,0,0,1-1.71q-1-.86-1.87-1.72l-.15-.12a16.41,16.41,0,0,1-1.81-1.52,29.49,29.49,0,0,0-2.32-2,1,1,0,0,0-.53-.19c-5-.34-9.18-2.23-10.95-4.88,2.58,2.81,6.92,3,8.72,3A1,1,0,0,0,35.29,34a36.29,36.29,0,0,1-3-5.92,23.88,23.88,0,0,0-1.07-2.8,26.41,26.41,0,0,1-2.72-6.31,10.74,10.74,0,0,0,1.13,1.7,1,1,0,0,0,1.77-.51,15.14,15.14,0,0,1,.71-3.06l0-.14c0-.1.07-.21.09-.27a28.65,28.65,0,0,1,2.11-5A23.6,23.6,0,0,0,34,23.27a26.35,26.35,0,0,0,3.45,8.63A38.29,38.29,0,0,0,41.26,37,1,1,0,0,0,43,36.37c0-.4,0-.81.06-1.23a15.89,15.89,0,0,0,3.65,7.16,47.57,47.57,0,0,0,5,4.64l.9.77a1,1,0,0,0,.36.2,154.11,154.11,0,0,1,19.21,7.56,29.24,29.24,0,0,0,3.31,1.41,5.93,5.93,0,0,1-.28,3.86,2.85,2.85,0,0,1-2.35,1.91l-.59.07c-13.93,1.64-21.55.3-22.66-4A1,1,0,0,0,48.61,58a1,1,0,0,0-.89,1C47.51,63.71,52.36,65.41,54.84,66Z"/></svg>