<svg id="blue_svg_2px" xmlns="http://www.w3.org/2000/svg" viewBox="0 0 96 96"><path class="cls-1" d="M75,14.22H21a3.5,3.5,0,0,0-3.5,3.5v1.56a3.49,3.49,0,0,0,3.12,3.46,3.46,3.46,0,0,0-.37,1.54v1.56a3.5,3.5,0,0,0,3.5,3.5H28a3.46,3.46,0,0,0-.35,1.5v1.55a3.5,3.5,0,0,0,3.5,3.5h.6a3.46,3.46,0,0,0-.35,1.5v1.56a3.46,3.46,0,0,0,.47,1.71,3.49,3.49,0,0,0-2.34,3.29V45.5A3.46,3.46,0,0,0,29.9,47h-.66a3.5,3.5,0,0,0-3.5,3.5v1.56a3.5,3.5,0,0,0,1.53,2.89,3.47,3.47,0,0,0-.72,2.11v1.56a3.5,3.5,0,0,0,3.5,3.5h7.34a3.46,3.46,0,0,0-.35,1.5v1.55a3.5,3.5,0,0,0,3.5,3.5h3.53a3.46,3.46,0,0,0-.35,1.5v1.56a3.5,3.5,0,0,0,3.5,3.5h3.65a3.46,3.46,0,0,0-.35,1.5v1.56a3.5,3.5,0,0,0,3.5,3.5h2.56a3.5,3.5,0,0,0,3.5-3.5V76.72a3.46,3.46,0,0,0-.35-1.5H61a3.5,3.5,0,0,0,3.5-3.5V70.17A3.49,3.49,0,0,0,62,66.85a3.46,3.46,0,0,0,.45-1.68V63.61a3.49,3.49,0,0,0-2.5-3.34,3.46,3.46,0,0,0,.44-1.66V57.06A3.46,3.46,0,0,0,60,55.54a3.5,3.5,0,0,0,3.3-3.48V50.5a3.47,3.47,0,0,0-.66-2,3.49,3.49,0,0,0,1.66-3V43.94A3.46,3.46,0,0,0,64,42.41a3.49,3.49,0,0,0,3.18-3.47V37.39a3.46,3.46,0,0,0-.37-1.53,3.49,3.49,0,0,0,3.18-3.47V30.83a3.46,3.46,0,0,0-.35-1.5h.66a3.5,3.5,0,0,0,3.5-3.5V24.28a3.46,3.46,0,0,0-.35-1.5H75a3.5,3.5,0,0,0,3.5-3.5V17.72A3.5,3.5,0,0,0,75,14.22ZM31.55,45.5V43.94a1.5,1.5,0,0,1,1.5-1.5H60.83a1.5,1.5,0,0,1,1.5,1.5V45.5a1.5,1.5,0,0,1-1.5,1.5H33A1.5,1.5,0,0,1,31.55,45.5Zm-3,13.11V57.06a1.5,1.5,0,0,1,1.5-1.5H56.89a1.5,1.5,0,0,1,1.5,1.5v1.56a1.5,1.5,0,0,1-1.5,1.5H30A1.5,1.5,0,0,1,28.55,58.61ZM58.08,76.72v1.56a1.5,1.5,0,0,1-1.5,1.5H54a1.5,1.5,0,0,1-1.5-1.5V76.72a1.5,1.5,0,0,1,1.5-1.5h2.56A1.5,1.5,0,0,1,58.08,76.72Zm4.37-6.56v1.56a1.5,1.5,0,0,1-1.5,1.5H47.22a1.5,1.5,0,0,1-1.5-1.5V70.17a1.5,1.5,0,0,1,1.5-1.5H61A1.5,1.5,0,0,1,62.45,70.17Zm-2-6.55v1.55a1.5,1.5,0,0,1-1.5,1.5H40.54a1.5,1.5,0,0,1-1.5-1.5V63.61a1.5,1.5,0,0,1,1.5-1.5H59A1.5,1.5,0,0,1,60.45,63.61Zm.87-11.56a1.5,1.5,0,0,1-1.5,1.5H29.24a1.5,1.5,0,0,1-1.5-1.5V50.5a1.5,1.5,0,0,1,1.5-1.5H59.83a1.5,1.5,0,0,1,1.5,1.5Zm3.81-13.11a1.5,1.5,0,0,1-1.5,1.5H34.92a1.5,1.5,0,0,1-1.5-1.5V37.39a1.5,1.5,0,0,1,1.5-1.5H63.63a1.5,1.5,0,0,1,1.5,1.5Zm2.81-6.56a1.5,1.5,0,0,1-1.5,1.5H31.17a1.5,1.5,0,0,1-1.5-1.5V30.83a1.5,1.5,0,0,1,1.5-1.5H66.44a1.5,1.5,0,0,1,1.5,1.5Zm3.81-8.11v1.56a1.5,1.5,0,0,1-1.5,1.5H23.75a1.5,1.5,0,0,1-1.5-1.5V24.28a1.5,1.5,0,0,1,1.5-1.5H70.25A1.5,1.5,0,0,1,71.75,24.28Zm4.75-5a1.5,1.5,0,0,1-1.5,1.5H21a1.5,1.5,0,0,1-1.5-1.5V17.72a1.5,1.5,0,0,1,1.5-1.5H75a1.5,1.5,0,0,1,1.5,1.5Z"/></svg>