<svg id="blue_svg_2px"  xmlns="http://www.w3.org/2000/svg" viewBox="0 0 302.94 287.83"><path class="cls-1" d="M124.46,292.44a3.67,3.67,0,0,0-4.72,2.17l-8,21.68a3.7,3.7,0,0,0,.56,3.73,3.68,3.68,0,0,0,6.32-1.13l8.05-21.72A3.68,3.68,0,0,0,124.46,292.44Z" transform="translate(-111.44 -80.9)"/><path class="cls-1" d="M176.29,294.36a3.68,3.68,0,0,0-3.34-2.14,3.69,3.69,0,0,0-3.45,2.4l-8,21.67A3.7,3.7,0,0,0,162,320a3.68,3.68,0,0,0,6.32-1.13l8-21.72A3.65,3.65,0,0,0,176.29,294.36Z" transform="translate(-111.44 -80.9)"/><path class="cls-1" d="M224.81,292.44a3.67,3.67,0,0,0-4.72,2.17l-8,21.67a3.71,3.71,0,0,0,.56,3.73,3.68,3.68,0,0,0,6.32-1.13l8-21.72A3.68,3.68,0,0,0,224.81,292.44Z" transform="translate(-111.44 -80.9)"/><path class="cls-1" d="M354.43,292.44a3.67,3.67,0,0,0-4.72,2.17l-8,21.67a3.71,3.71,0,0,0,.56,3.72,3.67,3.67,0,0,0,2.85,1.35,3.67,3.67,0,0,0,3.47-2.47l8-21.72A3.67,3.67,0,0,0,354.43,292.44Z" transform="translate(-111.44 -80.9)"/><path class="cls-1" d="M135.93,339.82A3.67,3.67,0,0,0,131.2,342l-8,21.68a3.7,3.7,0,0,0,.56,3.72,3.68,3.68,0,0,0,6.32-1.13l8-21.71A3.68,3.68,0,0,0,135.93,339.82Z" transform="translate(-111.44 -80.9)"/><path class="cls-1" d="M185.7,339.82A3.67,3.67,0,0,0,181,342l-8,21.68a3.68,3.68,0,1,0,6.88,2.59l8-21.72A3.68,3.68,0,0,0,185.7,339.82Z" transform="translate(-111.44 -80.9)"/><path class="cls-1" d="M236.28,339.82a3.67,3.67,0,0,0-4.72,2.17l-8,21.68a3.68,3.68,0,1,0,6.88,2.59l8-21.71A3.68,3.68,0,0,0,236.28,339.82Z" transform="translate(-111.44 -80.9)"/><path class="cls-1" d="M316.12,339.82A3.67,3.67,0,0,0,311.4,342l-8,21.68a3.68,3.68,0,1,0,6.88,2.59l8-21.71A3.68,3.68,0,0,0,316.12,339.82Z" transform="translate(-111.44 -80.9)"/><path class="cls-1" d="M365.9,339.82a3.67,3.67,0,0,0-4.72,2.17l-8,21.68a3.71,3.71,0,0,0,.56,3.72,3.68,3.68,0,0,0,6.32-1.13l8-21.72A3.68,3.68,0,0,0,365.9,339.82Z" transform="translate(-111.44 -80.9)"/><path class="cls-1" d="M288.79,361.35l-3-50.23L285.69,309h21.65c0.24,0,1.14-.14,2.68-1.94a3.39,3.39,0,0,0,1-2.72l-2.09-22.15L308.69,280h44.79c33.4,0,60.63-27.52,60.89-61.44a2.68,2.68,0,0,1-.38-1.27v-0.17a2.05,2.05,0,0,1,.37-1.16,75.87,75.87,0,0,0-63.29-74.12l-1.19-.2-0.38-1.15a87.07,87.07,0,0,0-55.18-55.25,83.91,83.91,0,0,0-75.91,11.64c-20.34,14.92-27.71,31.1-31.85,43.52l-0.38,1.15-1.2.19a74.51,74.51,0,0,0-46.31,27.15,77.72,77.72,0,0,0-17.15,49.22c0.19,17.47,6.62,33.34,18.1,44.67C150.88,273.89,166.21,280,182.8,280h48l0.59,1L282,363.23a3.57,3.57,0,0,0,3.17,1.51h0.1a3.74,3.74,0,0,0,2.56-1.24A2.47,2.47,0,0,0,288.79,361.35ZM229,266a3.51,3.51,0,0,0-3.21,1.7,3.17,3.17,0,0,0-.45,2l0.39,2.33H182.8a54.59,54.59,0,0,1-54.22-52.91v-0.27a81,81,0,0,1,7.14-33.16,62.19,62.19,0,0,1,17.89-23.08c9.38-7.43,21.2-12.18,35.11-14.12l1.43-.2a3.35,3.35,0,0,0,2.35-2.36c6.75-24.44,25.68-42.58,41.45-49.72,11.61-5.26,23.19-7.92,34.43-7.92a75,75,0,0,1,25.31,4.51,79.52,79.52,0,0,1,50,53.21,3.65,3.65,0,0,0,3.11,2.63c36.25,4.22,60.6,32.15,60.6,69.51C407.19,247.83,383,272,353.49,272H308l-0.17-1.81-3.71-39.3c-0.19-2-2-2.89-3.66-2.89H244.18c-1.81,0-2.61.23-3.07,0.9a3.87,3.87,0,0,0-.34,3.5l12.67,30.84,1.13,2.76H229Zm52.84,35a3.67,3.67,0,0,0-2.72.74,3,3,0,0,0-.95,2.36l2,34.49,0.46,8-4.16-6.79L237.37,276l-1.87-3h24.58a4,4,0,0,0,3.06-1.89,2.89,2.89,0,0,0,.34-3l-12.67-30.33L249.66,235h47.46l0.17,1.81,5.8,62,0.2,2.19H281.79Z" transform="translate(-111.44 -80.9)"/><path class="cls-1" d="M404.21,292.44a3.67,3.67,0,0,0-4.72,2.17l-8,21.67A3.7,3.7,0,0,0,392,320a3.68,3.68,0,0,0,6.32-1.13l8-21.72A3.68,3.68,0,0,0,404.21,292.44Z" transform="translate(-111.44 -80.9)"/></svg>